<svg width="24" height="24" viewBox="0 0 24 24" fill="none" xmlns="http://www.w3.org/2000/svg">
<path d="M22 9.49968C22 9.72109 21.9122 9.9327 21.756 10.0893C21.5996 10.2459 21.3877 10.3339 21.1667 10.3339C20.9457 10.3339 20.7337 10.2459 20.5774 10.0893C20.4212 9.9327 20.3334 9.72109 20.3334 9.49968V4.84525L13.424 11.7566C13.2676 11.9132 13.0555 12 12.8344 12C12.6133 12 12.4012 11.9132 12.2448 11.7566C12.0884 11.6 12.0006 11.3884 12.0006 11.167C12.0006 10.9456 12.0884 10.734 12.2448 10.5774L19.1542 3.66725H14.5C14.279 3.66725 14.067 3.57924 13.9108 3.42266C13.7545 3.26609 13.6666 3.0544 13.6666 2.83299C13.6666 2.61281 13.7545 2.40002 13.9108 2.24466C14.067 2.08809 14.279 2 14.5 2H21.1667C21.3877 2 21.5996 2.08809 21.756 2.24466C21.9122 2.40002 22 2.61281 22 2.83299V9.49968ZM17.8333 12C17.6123 12 17.4004 12.0881 17.2441 12.2447C17.0878 12.4 17.0001 12.6129 17.0001 12.8331V20.3339H3.66677V7.00063H11.1667C11.3878 7.00063 11.5996 6.91255 11.756 6.75597C11.9123 6.5994 12 6.38778 12 6.16637C12 5.94619 11.9123 5.73332 11.756 5.57797C11.5996 5.4214 11.3878 5.33331 11.1667 5.33331H3.66677C3.22469 5.33331 2.80072 5.50951 2.48819 5.82144C2.17565 6.13459 2 6.55782 2 7.00063V20.3339C2 20.7755 2.17565 21.2 2.48819 21.5119C2.80072 21.8251 3.22469 22 3.66677 22H17.0001C17.442 22 17.866 21.8251 18.1785 21.5119C18.4911 21.2 18.6667 20.7755 18.6667 20.3339V12.8331C18.6667 12.6129 18.5789 12.4 18.4227 12.2447C18.2663 12.0881 18.0544 12 17.8333 12Z" fill="#0F0F0F"/>
</svg>
