<svg width="24" height="24" viewBox="0 0 24 24" fill="none" xmlns="http://www.w3.org/2000/svg">
<path d="M10.333 22.1253C10.333 22.3578 10.2452 22.58 10.089 22.7444C9.9327 22.9075 9.72072 23 9.49981 23H3.66671C3.22465 23 2.80069 22.8163 2.48817 22.4875C2.17565 22.1599 2 21.7143 2 21.2506V3.75069C2 3.28573 2.17565 2.84127 2.48817 2.51246C2.80069 2.18494 3.22465 2 3.66671 2H9.49981C9.72072 2 9.9327 2.09249 10.089 2.2569C10.2452 2.42001 10.333 2.64352 10.333 2.87472C10.333 3.10719 10.2452 3.32939 10.089 3.49379C9.9327 3.65819 9.72072 3.75069 9.49981 3.75069H3.66671V21.2506H9.49981C9.72072 21.2506 9.9327 21.3418 10.089 21.5062C10.2452 21.6706 10.333 21.8928 10.333 22.1253ZM21.7555 11.8809L17.5891 7.50621C17.4326 7.34181 17.2207 7.24939 16.9995 7.24939C16.7784 7.24939 16.5663 7.34181 16.4099 7.50621C16.2536 7.67061 16.1657 7.89281 16.1657 8.12528C16.1657 8.35776 16.2536 8.58003 16.4099 8.74444L19.1546 11.6253H9.49981C9.27878 11.6253 9.06681 11.7178 8.91048 11.8809C8.75428 12.0453 8.66646 12.2675 8.66646 12.5C8.66646 12.7324 8.75428 12.9546 8.91048 13.119C9.06681 13.2834 9.27878 13.3747 9.49981 13.3747H19.1546L16.4099 16.2556C16.2536 16.42 16.1657 16.6434 16.1657 16.8746C16.1657 17.1071 16.2536 17.3306 16.4099 17.4937C16.5663 17.6581 16.7784 17.7506 16.9995 17.7506C17.2207 17.7506 17.4326 17.6581 17.5891 17.4937L21.7555 13.119C21.833 13.0381 21.8944 12.9419 21.9364 12.8353C21.9783 12.7286 22 12.6156 22 12.5C22 12.3856 21.9783 12.2714 21.9364 12.1648C21.8944 12.0594 21.833 11.9618 21.7555 11.8809Z" fill="#0F0F0F"/>
</svg>
