<svg width="40" height="40" viewBox="0 0 40 40" fill="none" xmlns="http://www.w3.org/2000/svg">
<path d="M15 17.0693C15 19.4099 15.7526 20.8926 16.7344 21.7969C17.7347 22.718 19.0817 23.1387 20.4268 23.1387C21.7718 23.1387 23.1188 22.718 24.1191 21.7969C25.1008 20.8926 25.8535 19.4098 25.8535 17.0693H27.8535C27.8535 19.8699 26.9348 21.9225 25.4746 23.2676C24.3063 24.3436 22.8592 24.9041 21.4268 25.0781V28.2803H24.2832V30.2803H16.5703V28.2803H19.4268V25.0781C17.9943 24.9041 16.5472 24.3436 15.3789 23.2676C13.9187 21.9225 13 19.8699 13 17.0693H15ZM20.4268 9C22.3986 9.00002 23.9977 10.5985 23.998 12.5703V17.7119C23.998 19.684 22.3988 21.2832 20.4268 21.2832C18.4549 21.283 16.8564 19.6838 16.8564 17.7119V12.5703C16.8568 10.5987 18.4551 9.00022 20.4268 9ZM20.4268 11C19.5597 11.0002 18.8568 11.7032 18.8564 12.5703V17.7119C18.8564 18.5793 19.5595 19.283 20.4268 19.2832C21.2942 19.2832 21.998 18.5794 21.998 17.7119V12.5703C21.9977 11.7031 21.294 11 20.4268 11Z" fill="#969696"/>
<path d="M15 17.0693C15 19.4099 15.7526 20.8926 16.7344 21.7969C17.7347 22.718 19.0817 23.1387 20.4268 23.1387C21.7718 23.1387 23.1188 22.718 24.1191 21.7969C25.1008 20.8926 25.8535 19.4098 25.8535 17.0693H27.8535C27.8535 19.8699 26.9348 21.9225 25.4746 23.2676C24.3063 24.3436 22.8592 24.9041 21.4268 25.0781V28.2803H24.2832V30.2803H16.5703V28.2803H19.4268V25.0781C17.9943 24.9041 16.5472 24.3436 15.3789 23.2676C13.9187 21.9225 13 19.8699 13 17.0693H15ZM20.4268 9C22.3986 9.00002 23.9977 10.5985 23.998 12.5703V17.7119C23.998 19.684 22.3988 21.2832 20.4268 21.2832C18.4549 21.283 16.8564 19.6838 16.8564 17.7119V12.5703C16.8568 10.5987 18.4551 9.00022 20.4268 9ZM20.4268 11C19.5597 11.0002 18.8568 11.7032 18.8564 12.5703V17.7119C18.8564 18.5793 19.5595 19.283 20.4268 19.2832C21.2942 19.2832 21.998 18.5794 21.998 17.7119V12.5703C21.9977 11.7031 21.294 11 20.4268 11Z" fill="black" fill-opacity="0.2"/>
<path d="M15 17.0693C15 19.4099 15.7526 20.8926 16.7344 21.7969C17.7347 22.718 19.0817 23.1387 20.4268 23.1387C21.7718 23.1387 23.1188 22.718 24.1191 21.7969C25.1008 20.8926 25.8535 19.4098 25.8535 17.0693H27.8535C27.8535 19.8699 26.9348 21.9225 25.4746 23.2676C24.3063 24.3436 22.8592 24.9041 21.4268 25.0781V28.2803H24.2832V30.2803H16.5703V28.2803H19.4268V25.0781C17.9943 24.9041 16.5472 24.3436 15.3789 23.2676C13.9187 21.9225 13 19.8699 13 17.0693H15ZM20.4268 9C22.3986 9.00002 23.9977 10.5985 23.998 12.5703V17.7119C23.998 19.684 22.3988 21.2832 20.4268 21.2832C18.4549 21.283 16.8564 19.6838 16.8564 17.7119V12.5703C16.8568 10.5987 18.4551 9.00022 20.4268 9ZM20.4268 11C19.5597 11.0002 18.8568 11.7032 18.8564 12.5703V17.7119C18.8564 18.5793 19.5595 19.283 20.4268 19.2832C21.2942 19.2832 21.998 18.5794 21.998 17.7119V12.5703C21.9977 11.7031 21.294 11 20.4268 11Z" fill="black" fill-opacity="0.2"/>
<path d="M15 17.0693C15 19.4099 15.7526 20.8926 16.7344 21.7969C17.7347 22.718 19.0817 23.1387 20.4268 23.1387C21.7718 23.1387 23.1188 22.718 24.1191 21.7969C25.1008 20.8926 25.8535 19.4098 25.8535 17.0693H27.8535C27.8535 19.8699 26.9348 21.9225 25.4746 23.2676C24.3063 24.3436 22.8592 24.9041 21.4268 25.0781V28.2803H24.2832V30.2803H16.5703V28.2803H19.4268V25.0781C17.9943 24.9041 16.5472 24.3436 15.3789 23.2676C13.9187 21.9225 13 19.8699 13 17.0693H15ZM20.4268 9C22.3986 9.00002 23.9977 10.5985 23.998 12.5703V17.7119C23.998 19.684 22.3988 21.2832 20.4268 21.2832C18.4549 21.283 16.8564 19.6838 16.8564 17.7119V12.5703C16.8568 10.5987 18.4551 9.00022 20.4268 9ZM20.4268 11C19.5597 11.0002 18.8568 11.7032 18.8564 12.5703V17.7119C18.8564 18.5793 19.5595 19.283 20.4268 19.2832C21.2942 19.2832 21.998 18.5794 21.998 17.7119V12.5703C21.9977 11.7031 21.294 11 20.4268 11Z" fill="black" fill-opacity="0.2"/>
<path d="M15 17.0693C15 19.4099 15.7526 20.8926 16.7344 21.7969C17.7347 22.718 19.0817 23.1387 20.4268 23.1387C21.7718 23.1387 23.1188 22.718 24.1191 21.7969C25.1008 20.8926 25.8535 19.4098 25.8535 17.0693H27.8535C27.8535 19.8699 26.9348 21.9225 25.4746 23.2676C24.3063 24.3436 22.8592 24.9041 21.4268 25.0781V28.2803H24.2832V30.2803H16.5703V28.2803H19.4268V25.0781C17.9943 24.9041 16.5472 24.3436 15.3789 23.2676C13.9187 21.9225 13 19.8699 13 17.0693H15ZM20.4268 9C22.3986 9.00002 23.9977 10.5985 23.998 12.5703V17.7119C23.998 19.684 22.3988 21.2832 20.4268 21.2832C18.4549 21.283 16.8564 19.6838 16.8564 17.7119V12.5703C16.8568 10.5987 18.4551 9.00022 20.4268 9ZM20.4268 11C19.5597 11.0002 18.8568 11.7032 18.8564 12.5703V17.7119C18.8564 18.5793 19.5595 19.283 20.4268 19.2832C21.2942 19.2832 21.998 18.5794 21.998 17.7119V12.5703C21.9977 11.7031 21.294 11 20.4268 11Z" fill="black" fill-opacity="0.2"/>
</svg>
