<svg width="30" height="20" viewBox="0 0 30 20" fill="none" xmlns="http://www.w3.org/2000/svg">
<path d="M5 1H25C27.2091 1 29 2.79086 29 5V15C29 17.2091 27.2091 19 25 19H5C2.79086 19 1 17.2091 1 15V5C1 2.79086 2.79086 1 5 1Z" stroke="#969696" stroke-width="2"/>
<path d="M5 1H25C27.2091 1 29 2.79086 29 5V15C29 17.2091 27.2091 19 25 19H5C2.79086 19 1 17.2091 1 15V5C1 2.79086 2.79086 1 5 1Z" stroke="black" stroke-opacity="0.2" stroke-width="2"/>
<path d="M5 1H25C27.2091 1 29 2.79086 29 5V15C29 17.2091 27.2091 19 25 19H5C2.79086 19 1 17.2091 1 15V5C1 2.79086 2.79086 1 5 1Z" stroke="black" stroke-opacity="0.2" stroke-width="2"/>
<path d="M5 1H25C27.2091 1 29 2.79086 29 5V15C29 17.2091 27.2091 19 25 19H5C2.79086 19 1 17.2091 1 15V5C1 2.79086 2.79086 1 5 1Z" stroke="black" stroke-opacity="0.2" stroke-width="2"/>
<path d="M5 1H25C27.2091 1 29 2.79086 29 5V15C29 17.2091 27.2091 19 25 19H5C2.79086 19 1 17.2091 1 15V5C1 2.79086 2.79086 1 5 1Z" stroke="black" stroke-opacity="0.2" stroke-width="2"/>
</svg>
