<svg width="20" height="20" viewBox="0 0 20 20" fill="none" xmlns="http://www.w3.org/2000/svg">
<path d="M10.9941 8.99414H20V10.9941H10.9941V20H8.99414V10.9941H0V8.99414H8.99414V0H10.9941V8.99414Z" fill="#969696"/>
<path d="M10.9941 8.99414H20V10.9941H10.9941V20H8.99414V10.9941H0V8.99414H8.99414V0H10.9941V8.99414Z" fill="black" fill-opacity="0.2"/>
<path d="M10.9941 8.99414H20V10.9941H10.9941V20H8.99414V10.9941H0V8.99414H8.99414V0H10.9941V8.99414Z" fill="black" fill-opacity="0.2"/>
<path d="M10.9941 8.99414H20V10.9941H10.9941V20H8.99414V10.9941H0V8.99414H8.99414V0H10.9941V8.99414Z" fill="black" fill-opacity="0.2"/>
<path d="M10.9941 8.99414H20V10.9941H10.9941V20H8.99414V10.9941H0V8.99414H8.99414V0H10.9941V8.99414Z" fill="black" fill-opacity="0.2"/>
</svg>
