<svg width="24" height="24" viewBox="0 0 24 24" fill="none" xmlns="http://www.w3.org/2000/svg">
<path d="M22.8752 21.7224C21.266 18.9609 18.7859 16.9803 15.8917 16.0417C17.3233 15.1955 18.4356 13.9059 19.0578 12.3724C19.6798 10.8376 19.7775 9.14401 19.3355 7.54892C18.8935 5.95384 17.9364 4.54844 16.6113 3.54582C15.2861 2.5432 13.666 2 11.9999 2C10.3338 2 8.71392 2.5432 7.38869 3.54582C6.06347 4.54844 5.10641 5.95384 4.66454 7.54892C4.22255 9.14401 4.32008 10.8376 4.94224 12.3724C5.5644 13.9059 6.6767 15.1955 8.10827 16.0417C5.21399 16.979 2.73402 18.9596 1.12477 21.7224C1.0657 21.8185 1.02649 21.9244 1.00962 22.0352C0.992617 22.1461 0.998204 22.2582 1.026 22.3678C1.05367 22.4762 1.10306 22.5784 1.17118 22.6671C1.2393 22.757 1.32479 22.8322 1.42257 22.8876C1.52023 22.9442 1.62831 22.98 1.74035 22.9935C1.8524 23.0071 1.96607 22.9996 2.07464 22.9689C2.18334 22.9381 2.28471 22.8864 2.37294 22.8162C2.46116 22.7472 2.53437 22.6597 2.58823 22.5612C4.57892 19.1468 8.09772 17.1071 11.9999 17.1071C15.9023 17.1071 19.421 19.1468 21.4118 22.5612C21.4656 22.6597 21.5388 22.7472 21.6271 22.8162C21.7152 22.8864 21.8167 22.9381 21.9252 22.9689C22.0339 22.9996 22.1476 23.0071 22.2596 22.9935C22.3716 22.98 22.4796 22.9442 22.5774 22.8876C22.6752 22.8322 22.7607 22.757 22.8287 22.6671C22.8968 22.5784 22.9462 22.4762 22.974 22.3678C23.0018 22.2582 23.0074 22.1461 22.9904 22.0352C22.9734 21.9244 22.9343 21.8185 22.8752 21.7224ZM6.08258 9.55544C6.08258 8.39392 6.42965 7.25824 7.07985 6.29134C7.73005 5.32567 8.65424 4.57311 9.73551 4.12845C10.8168 3.6838 12.0065 3.56802 13.1544 3.79466C14.3022 4.0213 15.3567 4.58049 16.1842 5.40205C17.0117 6.22361 17.5753 7.26932 17.8036 8.40866C18.0319 9.54801 17.9148 10.7292 17.4669 11.8033C17.019 12.8761 16.2606 13.7938 15.2874 14.4392C14.3144 15.0846 13.1703 15.4295 11.9999 15.4295C10.4311 15.427 8.92698 14.8075 7.81766 13.7063C6.70822 12.6052 6.08432 11.1123 6.08258 9.55544Z" fill="#0F0F0F"/>
</svg>
