<svg width="20" height="18" viewBox="0 0 20 18" fill="none" xmlns="http://www.w3.org/2000/svg">
<path d="M5.94567 8.00493L1.70173 6.6787C1.28425 6.54824 1 6.16161 1 5.72422V2.00229C1 1.27758 1.74684 0.793524 2.40837 1.08947L17.9596 8.04659C18.7484 8.3995 18.7484 9.51933 17.9596 9.87223L2.40837 16.8294C1.74684 17.1253 1 16.6412 1 15.9165V12.1946C1 11.7572 1.28425 11.3706 1.70172 11.2401L5.94566 9.91389C6.8813 9.62151 6.8813 8.29732 5.94567 8.00493Z" stroke="#969696" stroke-width="2"/>
<path d="M5.94567 8.00493L1.70173 6.6787C1.28425 6.54824 1 6.16161 1 5.72422V2.00229C1 1.27758 1.74684 0.793524 2.40837 1.08947L17.9596 8.04659C18.7484 8.3995 18.7484 9.51933 17.9596 9.87223L2.40837 16.8294C1.74684 17.1253 1 16.6412 1 15.9165V12.1946C1 11.7572 1.28425 11.3706 1.70172 11.2401L5.94566 9.91389C6.8813 9.62151 6.8813 8.29732 5.94567 8.00493Z" stroke="black" stroke-opacity="0.2" stroke-width="2"/>
<path d="M5.94567 8.00493L1.70173 6.6787C1.28425 6.54824 1 6.16161 1 5.72422V2.00229C1 1.27758 1.74684 0.793524 2.40837 1.08947L17.9596 8.04659C18.7484 8.3995 18.7484 9.51933 17.9596 9.87223L2.40837 16.8294C1.74684 17.1253 1 16.6412 1 15.9165V12.1946C1 11.7572 1.28425 11.3706 1.70172 11.2401L5.94566 9.91389C6.8813 9.62151 6.8813 8.29732 5.94567 8.00493Z" stroke="black" stroke-opacity="0.2" stroke-width="2"/>
<path d="M5.94567 8.00493L1.70173 6.6787C1.28425 6.54824 1 6.16161 1 5.72422V2.00229C1 1.27758 1.74684 0.793524 2.40837 1.08947L17.9596 8.04659C18.7484 8.3995 18.7484 9.51933 17.9596 9.87223L2.40837 16.8294C1.74684 17.1253 1 16.6412 1 15.9165V12.1946C1 11.7572 1.28425 11.3706 1.70172 11.2401L5.94566 9.91389C6.8813 9.62151 6.8813 8.29732 5.94567 8.00493Z" stroke="black" stroke-opacity="0.2" stroke-width="2"/>
<path d="M5.94567 8.00493L1.70173 6.6787C1.28425 6.54824 1 6.16161 1 5.72422V2.00229C1 1.27758 1.74684 0.793524 2.40837 1.08947L17.9596 8.04659C18.7484 8.3995 18.7484 9.51933 17.9596 9.87223L2.40837 16.8294C1.74684 17.1253 1 16.6412 1 15.9165V12.1946C1 11.7572 1.28425 11.3706 1.70172 11.2401L5.94566 9.91389C6.8813 9.62151 6.8813 8.29732 5.94567 8.00493Z" stroke="black" stroke-opacity="0.2" stroke-width="2"/>
</svg>
