<svg width="24" height="22" viewBox="0 0 24 22" fill="none" xmlns="http://www.w3.org/2000/svg">
<path d="M13.9492 0C14.7987 -6.68277e-07 15.509 -0.00135519 16.0938 0.0566406C16.7003 0.116876 17.251 0.246342 17.7754 0.550781C18.2996 0.855242 18.6861 1.26996 19.041 1.76758C19.3834 2.24757 19.7372 2.86652 20.1631 3.60742L22.25 7.2373C22.6776 7.98115 23.0348 8.60075 23.2783 9.14062C23.5308 9.70051 23.6952 10.2448 23.6953 10.8535C23.6953 11.4622 23.5307 12.0066 23.2783 12.5664C23.0349 13.1063 22.6776 13.7268 22.25 14.4707L20.1631 18.1006C19.7373 18.8413 19.3833 19.4605 19.041 19.9404C18.6862 20.4379 18.2995 20.8519 17.7754 21.1562C17.251 21.4608 16.7004 21.5901 16.0938 21.6504C15.509 21.7084 14.7987 21.708 13.9492 21.708H9.74609C8.8965 21.708 8.18634 21.7084 7.60156 21.6504C6.9948 21.5902 6.4444 21.4607 5.91992 21.1562C5.39576 20.8519 5.00916 20.4379 4.6543 19.9404C4.31195 19.4604 3.95714 18.8415 3.53125 18.1006L1.44531 14.4707C1.01768 13.7267 0.65951 13.1063 0.416016 12.5664C0.163586 12.0065 0 11.4623 0 10.8535C8.27114e-05 10.2448 0.163532 9.70051 0.416016 9.14062C0.659507 8.60076 1.01776 7.98115 1.44531 7.2373L3.53125 3.60645C3.95703 2.8657 4.31201 2.24748 4.6543 1.76758C5.00918 1.27009 5.39577 0.855162 5.91992 0.550781C6.44429 0.246495 6.99494 0.116822 7.60156 0.0566406C8.18634 -0.00132327 8.89652 0 9.74609 0H13.9492ZM9.74609 2C8.85746 2 8.26233 2.00094 7.79883 2.04688C7.35808 2.09061 7.1153 2.16921 6.92383 2.28027C6.73191 2.39172 6.54175 2.56491 6.28223 2.92871C6.00999 3.31041 5.71073 3.82914 5.26562 4.60352L3.17871 8.23438C2.73197 9.01161 2.43304 9.53325 2.23926 9.96289C2.05464 10.3723 2.00007 10.6267 2 10.8535C2 11.0803 2.05468 11.3347 2.23926 11.7441C2.43306 12.1739 2.73177 12.696 3.17871 13.4736L5.26562 17.1035L5.83887 18.0889C6.00321 18.3627 6.14618 18.5876 6.28223 18.7783C6.54186 19.1423 6.7319 19.3153 6.92383 19.4268C7.11535 19.5379 7.35784 19.6164 7.79883 19.6602C8.26233 19.7061 8.85744 19.708 9.74609 19.708H13.9492C14.8376 19.708 15.4321 19.7061 15.8955 19.6602C16.3366 19.6164 16.58 19.538 16.7715 19.4268C16.9632 19.3153 17.1537 19.142 17.4131 18.7783C17.6852 18.3966 17.9847 17.8776 18.4297 17.1035L20.5166 13.4736L21.0811 12.4785C21.2356 12.1974 21.3582 11.9589 21.4551 11.7441C21.6396 11.3348 21.6953 11.0803 21.6953 10.8535C21.6952 10.6267 21.6397 10.3723 21.4551 9.96289C21.2613 9.53327 20.9633 9.01157 20.5166 8.23438L18.4297 4.60352C17.9845 3.82899 17.6853 3.31046 17.4131 2.92871C17.1535 2.5648 16.9634 2.39177 16.7715 2.28027C16.58 2.16905 16.3366 2.09066 15.8955 2.04688C15.4321 2.00095 14.8375 2 13.9492 2H9.74609ZM11.8467 6.02148C14.5043 6.02162 16.6434 8.19388 16.6436 10.8535C16.6436 13.5133 14.5044 15.6854 11.8467 15.6855C9.18886 15.6855 7.0498 13.5134 7.0498 10.8535C7.05001 8.19381 9.18899 6.02151 11.8467 6.02148ZM11.8467 8.02148C10.311 8.02151 9.05001 9.28085 9.0498 10.8535C9.0498 12.4264 10.3109 13.6855 11.8467 13.6855C13.3824 13.6854 14.6436 12.4263 14.6436 10.8535C14.6434 9.28091 13.3823 8.02162 11.8467 8.02148Z" fill="#0F0F0F"/>
</svg>
